<svg width="1245" height="859" viewBox="0 0 1245 859" fill="none" xmlns="http://www.w3.org/2000/svg">
<path d="M421.953 751.467C549.262 702.523 599.838 574.825 584.837 513.075C577.719 483.777 375.956 492.141 295.607 524.89C204.293 568.709 162.534 626.423 188.569 680.677C222.669 751.739 321.942 782.206 421.953 751.467Z" fill="#FEFE91"/>
<path d="M824.798 751.467C697.488 702.523 646.913 574.825 661.914 513.075C669.031 483.777 870.795 492.141 951.144 524.89C1042.46 568.709 1084.22 626.423 1058.18 680.677C1024.08 751.739 924.809 782.206 824.798 751.467Z" fill="#FEFE91"/>
<path d="M537.515 250.824C612.379 398.723 635.928 574.044 548.054 618.524C504.028 640.81 300.68 549.829 229.017 427.23C154.153 279.33 173.19 120.149 261.063 75.6687C348.937 31.1888 462.651 102.925 537.515 250.824Z" fill="#FEFE91"/>
<path d="M707.206 250.824C632.342 398.723 608.793 574.044 696.667 618.524C740.693 640.81 944.041 549.829 1015.7 427.23C1090.57 279.33 1071.53 120.149 983.658 75.6687C895.784 31.1888 782.07 102.925 707.206 250.824Z" fill="#FEFE91"/>
<path d="M505.895 143.5C455.207 77.5 376.895 15.0001 307.895 44.0001C341.395 18.0002 380.8 19.8549 414.895 33C456.395 49 527.395 115 570.895 219C603.088 295.968 643.895 419.5 595.895 536.5C644.395 398.5 563.879 219 505.895 143.5Z" fill="#B1D7FB"/>
<path d="M739.903 144.5C790.591 78.5 868.903 16.0001 937.903 45.0001C904.403 19.0002 864.998 20.8549 830.903 34C789.403 50 718.403 116 674.903 220C642.709 296.968 601.903 420.5 649.903 537.5C601.403 399.5 681.919 220 739.903 144.5Z" fill="#B1D7FB"/>
<path d="M449.907 233.291C566.76 350.867 643.265 510.364 573.407 579.791C538.407 614.575 316.907 590.791 210.907 496.291C94.0548 378.714 63.0377 221.427 132.895 152C202.752 82.5728 333.055 115.714 449.907 233.291Z" fill="#DCF4F6"/>
<path d="M794.51 233.399C677.658 350.976 601.153 510.472 671.01 579.899C706.01 614.684 927.51 590.899 1033.51 496.4C1150.36 378.823 1181.38 221.536 1111.52 152.109C1041.67 82.6816 911.363 115.823 794.51 233.399Z" fill="#DCF4F6"/>
<path d="M439.5 774.5C566 723.5 611.105 601.499 599 533C591.409 503.821 387.203 518.453 307.395 552.5C216.803 597.792 176.09 661.675 203 715.5C234.497 778.5 340 806.855 439.5 774.5Z" fill="#B9E8FC"/>
<path d="M805.747 774.5C679.247 723.5 634.143 601.499 646.247 533C653.838 503.821 858.044 518.453 937.852 552.5C1028.44 597.792 1069.16 661.675 1042.25 715.5C1010.75 778.5 905.247 806.855 805.747 774.5Z" fill="#B9E8FC"/>
</svg>
